<?xml version="1.0" encoding="UTF-8"?>
<!-- Created with Inkscape (http://www.inkscape.org/) -->
<svg width="216" height="338" version="1.1" viewBox="0 0 216 338" xmlns="http://www.w3.org/2000/svg" xmlns:cc="http://creativecommons.org/ns#" xmlns:dc="http://purl.org/dc/elements/1.1/" xmlns:rdf="http://www.w3.org/1999/02/22-rdf-syntax-ns#">
 <metadata>
  <rdf:RDF>
   <cc:Work rdf:about="">
    <dc:format>image/svg+xml</dc:format>
    <dc:type rdf:resource="http://purl.org/dc/dcmitype/StillImage"/>
    <dc:title/>
   </cc:Work>
  </rdf:RDF>
 </metadata>
 <g transform="translate(0 -784.52)">
  <path d="m0.5 953.69c7.7e-6 -36.117 35.796-63.545 45.5-98.333 5.4065-19.383 6.6667-60 6.6667-60s17.333-10.074 50.208-9.9953c32.875 0.0787 50.208 10.245 50.208 10.245s1.2601 40.617 6.6667 60c9.7036 34.789 45.5 62.217 45.5 98.333s-35.796 63.545-45.5 98.333c-5.4065 19.383-6.6667 60-6.6667 60s-17.333 10.074-50.208 9.9953c-32.875-0.079-50.208-10.245-50.208-10.245s-1.2601-40.617-6.6667-60c-9.7036-34.789-45.5-62.217-45.5-98.333z" fill="#65746f" stroke="#000" stroke-width=".5"/>
 </g>
 <g transform="translate(0 -784.52)" fill="#e3b99e" stroke="#000" stroke-linecap="round" stroke-linejoin="bevel" stroke-width=".5">
  <circle cx="102.75" cy="953.94" r="102.5"/>
 </g>
 <g transform="translate(0 -784.52)">
  <circle cx="102.75" cy="953.94" r="87.475" fill="#ddd" stroke="#222" stroke-linecap="round" stroke-linejoin="bevel" stroke-width="22.55"/>
 </g>
</svg>
